<svg xmlns="http://www.w3.org/2000/svg" version="1.1" id="图层_1" x="0" y="0" viewBox="0 0 53 47" xml:space="preserve">
    <path
        d="M50.4 20c-1.8 3-4.8 5.3-8.5 6.3-.1 0-.2.1-.3.1-.6.2-1.1.3-1.7.3-2.5 0-3.9-1.7-3.2-3.8.6-1.5 2-2.8 3.8-3.4 2.8-1 4.7-3.3 4.7-6 0-3.6-3.5-6.5-7.8-6.5s-7.8 2.9-7.8 6.5v20c0 4.8-2.8 9-7 11.4-2.3 1.3-5 2.1-7.8 2.1C6.6 47 0 40.9 0 33.5c0-2.4.7-4.6 1.9-6.5 1.8-3 4.9-5.3 8.5-6.3.6-.2 1.3-.3 1.9-.3 2.5 0 3.9 1.7 3.2 3.8-.5 1.4-1.9 2.6-3.5 3.3-.2.1-.4.1-.6.2-2.7 1-4.4 3.2-4.4 5.8 0 3.6 3.5 6.5 7.8 6.5s7.8-2.9 7.8-6.5v-20c0-4.8 2.8-9 7-11.4C31.9.8 34.6 0 37.4 0c8.2 0 14.8 6.1 14.8 13.5 0 2.4-.7 4.6-1.8 6.5z"
        fill="#6467ef" />
</svg>